<svg width="1771" height="1772" viewBox="0 0 1771 1772" fill="none" xmlns="http://www.w3.org/2000/svg">
<g clip-path="url(#clip0_1_7)">
<rect x="1" width="1770" height="1771" rx="372" fill="#408AC3"/>
<path d="M498 342C544.956 341.949 591.911 341.901 638.867 341.873C639.564 341.873 640.261 341.872 640.979 341.872C656.131 341.863 671.284 341.854 686.437 341.847C693.87 341.843 701.303 341.839 708.736 341.835C709.476 341.835 710.215 341.834 710.977 341.834C734.873 341.821 758.768 341.799 782.663 341.771C807.255 341.743 831.847 341.724 856.44 341.718C859.927 341.717 863.415 341.716 866.903 341.715C867.932 341.715 867.932 341.715 868.983 341.715C879.951 341.711 890.919 341.697 901.888 341.68C912.963 341.662 924.038 341.655 935.113 341.659C941.094 341.661 947.075 341.659 953.056 341.642C986.303 341.556 1019.45 342.134 1052.31 347.75C1053.89 348.009 1055.46 348.269 1057.03 348.528C1082.88 352.858 1108.06 358.929 1133 367C1133.86 367.277 1134.71 367.554 1135.59 367.839C1178.79 382.028 1220.31 403.219 1257 430C1257.71 430.519 1258.43 431.039 1259.16 431.574C1272.2 441.105 1284.94 451.098 1296.84 462.027C1298.86 463.874 1300.92 465.659 1303 467.438C1307.18 471.065 1311.03 475 1314.9 478.961C1316.83 481.041 1316.83 481.041 1319 482C1319 482.66 1319 483.32 1319 484C1319.66 484 1320.32 484 1321 484C1322.48 485.504 1322.48 485.504 1324.19 487.562C1326.49 490.275 1328.81 492.85 1331.38 495.312C1335.49 499.376 1339.06 503.843 1342.67 508.354C1344.1 510.126 1345.55 511.88 1347.01 513.633C1364.81 535.152 1380.87 558.325 1394 583C1394.45 583.834 1394.9 584.668 1395.36 585.527C1407.17 607.495 1417.32 629.896 1425.99 653.282C1426.81 655.484 1427.64 657.679 1428.49 659.871C1440.76 692.538 1447.59 727.924 1452.12 762.438C1452.28 763.638 1452.44 764.839 1452.61 766.076C1455.03 785.247 1456.39 804.3 1456.31 823.625C1456.31 824.632 1456.31 825.64 1456.31 826.678C1456 915.916 1431.43 1005.18 1350 1130C1349.34 1130.83 1349.34 1130.83 1348.66 1131.68C1344.07 1137.43 1339.3 1142.99 1334.34 1148.42C1333.07 1149.82 1331.8 1151.23 1330.57 1152.67C1325.67 1158.4 1320.42 1163.73 1315.08 1169.05C1313.57 1170.56 1312.05 1172.08 1310.54 1173.6C1305.2 1178.94 1299.77 1184.12 1294 1189C1292.99 1189.88 1291.98 1190.75 1290.97 1191.63C1265.08 1213.81 1236.89 1232.67 1207 1249C1206.05 1249.52 1205.11 1250.03 1204.13 1250.57C1189.44 1258.54 1174.4 1265.5 1159 1272C1157.9 1272.47 1157.9 1272.47 1156.78 1272.94C1130.6 1284.05 1102.83 1291.43 1075 1297C1073.51 1297.31 1073.51 1297.31 1072 1297.62C1053.99 1301.29 1035.88 1303.73 1017.66 1305.98C1016.95 1306.07 1016.24 1306.16 1015.5 1306.25C1005.55 1307.46 995.739 1308.15 985.706 1308.12C984.516 1308.12 983.327 1308.12 982.101 1308.12C978.831 1308.12 975.561 1308.12 972.29 1308.12C968.752 1308.11 965.214 1308.11 961.675 1308.11C955.555 1308.11 949.435 1308.11 943.315 1308.11C934.467 1308.1 925.619 1308.1 916.77 1308.09C902.412 1308.09 888.054 1308.08 873.696 1308.08C859.754 1308.07 845.812 1308.06 831.87 1308.05C831.01 1308.05 830.149 1308.05 829.263 1308.05C824.946 1308.05 820.63 1308.05 816.313 1308.05C780.542 1308.04 744.771 1308.02 709 1308C708.934 1308.89 708.868 1309.77 708.8 1310.69C708.712 1311.85 708.624 1313.02 708.533 1314.22C708.446 1315.38 708.359 1316.53 708.27 1317.72C707.948 1321.64 707.468 1325.48 706.914 1329.37C706.813 1330.09 706.711 1330.81 706.607 1331.55C706.283 1333.85 705.954 1336.14 705.625 1338.44C705.396 1340.05 705.168 1341.67 704.939 1343.29C704.493 1346.46 704.044 1349.62 703.595 1352.79C702.874 1357.88 702.184 1362.97 701.5 1368.06C700.218 1377.55 698.859 1387.02 697.5 1396.5C695.425 1410.98 693.413 1425.46 691.47 1439.96C689.012 1458.29 686.509 1476.61 683.873 1494.92C682.508 1504.41 681.178 1513.9 679.869 1523.4C677.957 1537.28 675.974 1551.14 673.938 1565C673.81 1565.87 673.682 1566.74 673.55 1567.64C673.047 1571.07 672.544 1574.49 672.041 1577.91C669.364 1596.13 666.809 1614.35 664.504 1632.62C663.313 1641.92 661.898 1651.16 660.362 1660.4C659.249 1667.18 658.402 1673.94 657.716 1680.77C657.231 1685.41 656.487 1689.92 655.562 1694.5C654.148 1701.61 653.287 1708.73 652.5 1715.94C651.571 1724.45 650.407 1732.81 648.803 1741.22C647.756 1747.12 647.099 1753.07 646.406 1759.03C646.27 1760.18 646.134 1761.34 645.993 1762.53C645.66 1765.35 645.329 1768.17 645 1771C607.649 1771.09 570.299 1771.16 532.948 1771.2C528.518 1771.21 524.088 1771.21 519.658 1771.22C518.776 1771.22 517.895 1771.22 516.986 1771.22C502.791 1771.24 488.595 1771.27 474.399 1771.31C459.786 1771.35 445.173 1771.37 430.559 1771.38C422.371 1771.38 414.183 1771.39 405.995 1771.42C339.574 1771.66 339.574 1771.66 311 1767C311.66 1766.67 312.32 1766.34 313 1766C313.375 1763.54 313.619 1761.14 313.812 1758.66C314.688 1749.15 315.963 1739.7 317.312 1730.25C317.53 1728.72 317.748 1727.18 317.965 1725.65C318.64 1720.91 319.32 1716.18 320 1711.44C320.899 1705.17 321.796 1698.89 322.688 1692.62C322.795 1691.87 322.902 1691.12 323.012 1690.34C324.253 1681.59 325.429 1672.85 326.336 1664.05C326.989 1657.8 327.891 1651.58 328.8 1645.36C330.296 1635.07 331.61 1624.76 332.932 1614.45C333.694 1608.51 334.462 1602.57 335.23 1596.64C335.382 1595.46 335.534 1594.29 335.691 1593.08C336.998 1582.99 338.326 1572.9 339.688 1562.81C339.788 1562.07 339.889 1561.32 339.993 1560.55C341.27 1551.1 342.632 1541.67 344.062 1532.25C345.592 1522.17 346.861 1512.06 348.047 1501.93C349.927 1485.96 352.187 1470.05 354.45 1454.12C356.248 1441.47 357.96 1428.8 359.596 1416.12C360.343 1410.35 361.106 1404.58 361.867 1398.82C362.537 1393.73 363.206 1388.65 363.875 1383.56C364.006 1382.57 364.006 1382.57 364.139 1381.56C366.531 1363.37 368.874 1345.18 371.115 1326.98C372.296 1317.4 373.548 1307.84 375.052 1298.31C375.705 1294.14 376.239 1289.97 376.66 1285.77C383.032 1222.21 404.034 1157.54 444 1107C444.946 1105.78 444.946 1105.78 445.91 1104.54C447.909 1102 449.947 1099.5 452 1097C452.802 1096.01 453.604 1095.02 454.43 1094C467.587 1078.05 482.32 1063.24 499 1051C500.075 1050.16 501.147 1049.32 502.215 1048.48C515.645 1037.86 529.879 1029.01 545 1021C545.655 1020.65 546.311 1020.3 546.986 1019.95C624.917 978.983 710.606 973.063 797 974C796.401 979.881 795.599 985.636 794.469 991.436C794.241 992.625 794.241 992.625 794.01 993.838C793.51 996.447 793.005 999.056 792.5 1001.66C792.142 1003.53 791.785 1005.39 791.428 1007.25C789.179 1018.96 786.902 1030.66 784.625 1042.36C783.31 1049.12 782.001 1055.88 780.694 1062.64C779.743 1067.55 778.788 1072.46 777.824 1077.38C776.865 1082.27 775.916 1087.16 774.976 1092.05C774.622 1093.88 774.265 1095.71 773.904 1097.53C769.662 1115.65 769.662 1115.65 774 1133C777.564 1137.11 780.43 1139.67 785.883 1140.37C799.017 1140.64 806.063 1135.31 815.59 1126.95C818.904 1124.05 822.333 1121.32 825.812 1118.63C830.927 1114.65 835.98 1110.6 841 1106.5C845.939 1102.47 850.908 1098.48 855.938 1094.56C861.198 1090.46 866.363 1086.25 871.5 1082C877.191 1077.29 882.931 1072.66 888.76 1068.12C893.243 1064.62 897.659 1061.04 902.062 1057.44C906.799 1053.57 911.569 1049.77 916.438 1046.06C922.315 1041.58 928.004 1036.9 933.69 1032.18C939.038 1027.76 944.489 1023.5 950.012 1019.3C953.877 1016.32 957.643 1013.24 961.406 1010.13C963.817 1008.15 966.246 1006.19 968.688 1004.25C972.374 1001.31 976.037 998.344 979.692 995.365C985.526 990.609 991.382 985.886 997.312 981.25C1002.27 977.373 1007.17 973.436 1012.04 969.438C1021.16 961.937 1030.32 954.498 1039.64 947.237C1044.35 943.55 1048.96 939.754 1053.56 935.938C1059.51 931.007 1065.54 926.233 1071.7 921.555C1076.2 918.1 1080.58 914.488 1084.98 910.895C1089.39 907.298 1093.83 903.753 1098.31 900.25C1102.41 897.046 1106.48 893.809 1110.5 890.5C1114.52 887.191 1118.59 883.955 1122.69 880.75C1127.84 876.724 1132.93 872.634 1138 868.5C1143.09 864.348 1148.2 860.237 1153.38 856.188C1154.24 855.512 1154.24 855.512 1155.11 854.824C1157.71 852.789 1160.31 850.763 1162.92 848.75C1169.58 843.555 1174.64 839.391 1177 831C1178.04 822.337 1177.3 815.084 1172 808C1165.65 801.194 1158.09 795.606 1150.74 789.922C1146.75 786.826 1142.85 783.635 1138.94 780.438C1133.16 775.715 1127.3 771.131 1121.36 766.605C1116.72 763.037 1112.21 759.318 1107.67 755.616C1103.51 752.217 1099.31 748.871 1095.05 745.59C1092.79 743.833 1090.55 742.045 1088.31 740.25C1084.33 737.057 1080.33 733.897 1076.31 730.75C1071.35 726.862 1066.42 722.944 1061.5 719C1056.69 715.14 1051.86 711.304 1047 707.5C1038.72 701.015 1030.52 694.435 1022.32 687.852C1018.28 684.607 1014.22 681.385 1010.13 678.189C1004.35 673.665 998.624 669.083 992.938 664.438C986.643 659.3 980.259 654.308 973.8 649.378C963.738 641.676 953.775 633.864 943.976 625.829C939.167 621.904 934.263 618.12 929.312 614.375C923.612 610.06 918.083 605.611 912.665 600.948C908.582 597.449 904.363 594.153 900.078 590.905C895.701 587.574 891.439 584.115 887.188 580.625C881.887 576.28 876.508 572.079 871 568C864.816 563.419 858.809 558.659 852.855 553.783C846.312 548.424 839.672 543.198 833 538C832.291 537.447 831.581 536.893 830.85 536.323C827.021 533.338 823.189 530.357 819.352 527.383C816.625 525.269 813.911 523.14 811.211 520.992C810.632 520.536 810.054 520.08 809.457 519.61C807.933 518.407 806.413 517.198 804.895 515.988C798.819 511.815 793.271 509.888 786 511C781.398 512.439 778.614 514.244 775.562 518C769.542 529.558 773.51 544.984 775.75 557.188C776.054 558.9 776.357 560.613 776.659 562.326C777.352 566.244 778.052 570.161 778.758 574.076C780.202 582.105 781.617 590.138 783.031 598.172C783.567 601.212 784.102 604.252 784.638 607.292C784.771 608.05 784.904 608.807 785.042 609.587C785.966 614.83 786.894 620.073 787.823 625.315C789.019 632.06 790.21 638.806 791.394 645.553C791.774 647.716 792.156 649.878 792.539 652.04C792.985 654.558 793.424 657.078 793.859 659.598C794.199 661.541 794.199 661.541 794.546 663.524C795.007 667.057 795.084 670.441 795 674C793.621 674.022 793.621 674.022 792.213 674.044C741.989 674.915 691.805 677.833 642.085 685.117C635.022 686.15 627.948 687.096 620.868 688.012C613.618 688.978 606.499 690.423 599.371 692.055C595.991 692.815 592.62 693.375 589.183 693.835C575.36 695.724 561.859 699.217 548.315 702.491C543.877 703.56 539.433 704.587 534.977 705.574C520.596 708.761 506.536 712.642 492.453 716.95C486.521 718.754 480.572 720.498 474.625 722.25C466.927 724.521 459.249 726.842 451.595 729.257C449 730 449 730 447 730C447.972 716.572 449.61 703.301 451.637 689.996C453.783 675.878 455.59 661.729 457.3 647.551C458.234 639.85 459.245 632.198 460.578 624.553C461.3 620.188 461.711 615.798 462.123 611.395C462.665 606.087 463.515 600.85 464.418 595.594C465.893 586.957 467.035 578.303 468.077 569.605C468.599 565.257 469.135 560.912 469.672 556.566C469.781 555.684 469.89 554.801 470.002 553.892C471.118 544.936 472.361 535.999 473.625 527.062C474.995 517.365 476.319 507.669 477.438 497.938C478.689 487.076 480.213 476.261 481.75 465.438C484.609 445.307 487.157 425.141 489.64 404.961C489.782 403.805 489.925 402.65 490.071 401.46C490.335 399.316 490.598 397.171 490.859 395.026C491.492 389.88 492.172 384.745 492.916 379.614C494.038 371.791 495.087 363.96 496.125 356.125C496.309 354.743 496.492 353.362 496.676 351.98C497.118 348.654 497.559 345.327 498 342Z" fill="#9ED8F7"/>
<path d="M799.812 511.875C804.358 514.368 808.212 517.476 812.125 520.86C816.196 524.378 820.421 527.619 824.75 530.813C831.018 535.455 837.11 540.274 843.144 545.216C851.094 551.727 859.187 558.05 867.312 564.34C868.834 565.518 870.354 566.696 871.875 567.875C872.637 568.465 873.398 569.055 874.183 569.663C879.892 574.103 885.504 578.653 891.094 583.241C895.7 586.999 900.408 590.591 905.188 594.125C910.639 598.158 915.868 602.352 920.997 606.786C925.367 610.535 929.905 614.031 934.5 617.5C939.648 621.387 944.683 625.343 949.562 629.562C954.806 634.09 960.263 638.251 965.833 642.368C972.198 647.095 978.33 652.084 984.461 657.109C987.802 659.847 991.195 662.509 994.617 665.145C997.833 667.648 1001.01 670.2 1004.19 672.75C1009.79 677.246 1015.43 681.704 1021.08 686.136C1025.21 689.372 1029.31 692.642 1033.4 695.926C1035.88 697.902 1038.37 699.859 1040.87 701.812C1046.57 706.271 1052.21 710.79 1057.81 715.375C1063.35 719.909 1068.98 724.306 1074.69 728.625C1080.39 732.94 1085.92 737.389 1091.34 742.052C1095.42 745.549 1099.63 748.843 1103.92 752.091C1108.35 755.469 1112.68 758.968 1117 762.5C1121.78 766.409 1126.59 770.256 1131.5 774C1137.08 778.258 1142.54 782.652 1147.97 787.102C1151.85 790.276 1155.77 793.376 1159.75 796.421C1175.32 808.378 1175.32 808.378 1178 818C1178.93 826.991 1178.29 834.497 1172.63 841.754C1168.19 846.516 1162.83 850.286 1157.66 854.199C1153.72 857.19 1149.89 860.306 1146.06 863.438C1139.82 868.54 1133.51 873.554 1127.16 878.523C1122.74 881.979 1118.37 885.489 1114 889C1106.71 894.847 1099.42 900.683 1092.06 906.438C1086.3 910.943 1080.63 915.541 1074.96 920.164C1070.11 924.112 1065.22 927.989 1060.29 931.836C1055.13 935.877 1050.05 940.013 1044.97 944.16C1040.62 947.701 1036.24 951.182 1031.81 954.625C1027.29 958.152 1022.86 961.77 1018.5 965.5C1013.58 969.709 1008.56 973.751 1003.45 977.728C998.837 981.325 994.284 984.992 989.75 988.688C983.858 993.49 977.944 998.263 972 1003C970.333 1004.33 968.666 1005.67 967 1007C966.17 1007.66 965.34 1008.33 964.484 1009.01C962.869 1010.3 961.254 1011.6 959.641 1012.89C955.487 1016.23 951.319 1019.54 947.125 1022.82C941.451 1027.26 935.828 1031.75 930.25 1036.31C924.46 1041.04 918.601 1045.67 912.688 1050.25C906.037 1055.4 899.486 1060.64 893 1066C884.711 1072.79 876.381 1079.52 867.938 1086.12C864.422 1088.87 860.947 1091.66 857.5 1094.5C853.481 1097.81 849.414 1101.05 845.312 1104.25C840.103 1108.32 834.942 1112.45 829.812 1116.62C829.137 1117.17 828.461 1117.72 827.764 1118.29C824.797 1120.71 821.836 1123.13 818.895 1125.58C799.569 1141.61 799.569 1141.61 786.234 1141.38C779.925 1140.64 776.431 1137.8 772.562 1132.94C767.566 1123.54 770.02 1112.12 772.02 1102.14C772.234 1101.03 772.448 1099.91 772.669 1098.76C773.373 1095.11 774.093 1091.46 774.812 1087.81C775.31 1085.25 775.807 1082.68 776.303 1080.11C777.336 1074.77 778.377 1069.43 779.421 1064.09C780.966 1056.19 782.488 1048.29 784.004 1040.38C788.256 1018.24 792.549 996.105 797 974C713.94 974.81 633.08 979.489 557 1016C556.213 1016.38 555.426 1016.75 554.615 1017.14C533.426 1027.35 513.804 1039.79 495.596 1054.7C494.058 1055.95 492.506 1057.19 490.953 1058.43C476.681 1070.07 463.168 1083.34 452 1098C451.154 1099.05 450.305 1100.09 449.453 1101.14C404.436 1156.62 383.917 1225.63 376.207 1295.6C375.201 1304.61 373.966 1313.58 372.688 1322.56C370.605 1337.21 368.767 1351.88 367 1366.56C365.226 1381.29 363.358 1396 361.198 1410.68C359.299 1423.6 357.63 1436.54 356 1449.5C354.024 1465.2 351.948 1480.88 349.648 1496.54C348.535 1504.14 347.51 1511.75 346.572 1519.38C345.322 1529.53 343.998 1539.67 342.688 1549.81C342.533 1551.01 342.379 1552.2 342.22 1553.44C340.282 1568.42 338.273 1583.39 336.077 1598.34C334.039 1612.25 332.34 1626.19 330.699 1640.15C329.795 1647.8 328.82 1655.39 327.494 1662.98C326.553 1668.74 325.885 1674.53 325.169 1680.32C322.874 1698.8 320.335 1717.25 317.75 1735.69C317.572 1736.97 317.393 1738.24 317.209 1739.56C316.699 1743.21 316.186 1746.86 315.672 1750.51C315.518 1751.61 315.364 1752.72 315.205 1753.85C315.061 1754.87 314.917 1755.89 314.769 1756.93C314.644 1757.82 314.519 1758.7 314.39 1759.62C314.035 1761.79 313.57 1763.88 313 1766C302.993 1765.61 293.635 1763.53 284 1761C282.612 1760.64 282.612 1760.64 281.197 1760.27C235.883 1748.41 192.328 1728.97 154.953 1700.49C153.588 1699.45 152.22 1698.41 150.848 1697.38C140.496 1689.6 130.844 1681.39 121.504 1672.42C119.68 1670.7 117.792 1669.06 115.875 1667.44C107.289 1660.04 99.2176 1651.73 92 1643C91.5575 1642.47 91.1151 1641.94 90.6592 1641.4C69.3035 1615.84 51.3552 1588.06 37 1558C36.6444 1557.26 36.2888 1556.52 35.9224 1555.75C26.8214 1536.61 19.9051 1516.81 14.125 1496.44C13.9377 1495.78 13.7504 1495.13 13.5574 1494.45C9.5763 1480.46 7.08301 1466.32 4.9375 1451.94C4.77701 1450.91 4.61653 1449.89 4.45117 1448.84C1.08117 1426.33 0.684074 1403.89 0.665286 1381.18C0.659444 1376.68 0.64227 1372.17 0.626895 1367.66C0.592465 1356.84 0.576646 1346.02 0.562808 1335.19C0.555813 1330.08 0.546626 1324.97 0.537661 1319.86C0.508521 1302.86 0.483697 1285.85 0.473025 1268.85C0.472334 1267.77 0.471661 1266.68 0.47095 1265.57C0.469912 1263.94 0.469934 1263.94 0.468875 1262.28C0.467463 1260.08 0.466032 1257.88 0.464602 1255.68C0.463897 1254.59 0.463192 1253.5 0.462466 1252.37C0.450182 1234.64 0.407312 1216.91 0.351687 1199.18C0.294922 1180.94 0.264377 1162.7 0.260012 1144.45C0.256933 1134.23 0.24247 1124 0.198733 1113.77C0.161654 1105.08 0.148448 1096.38 0.166445 1087.69C0.1749 1083.26 0.172102 1078.82 0.138674 1074.39C0.108329 1070.33 0.110436 1066.27 0.138125 1062.21C0.142462 1060.75 0.135027 1059.28 0.114443 1057.82C0.00440291 1049.46 0.488946 1043.99 6.29132 1037.71C6.85519 1037.14 7.41904 1036.58 8 1036C8.70125 1035.1 9.4025 1034.2 10.125 1033.28C15.4179 1026.67 21.1051 1020.52 26.9473 1014.39C27.8841 1013.41 27.8841 1013.41 28.8398 1012.41C29.6808 1011.53 29.6808 1011.53 30.5388 1010.63C32.1978 1008.86 32.1978 1008.86 34 1006C34.66 1006 35.32 1006 36 1006C36.2589 1005.41 36.5177 1004.83 36.7844 1004.23C38.0922 1001.83 39.4974 1000.29 41.4492 998.391C42.1331 997.718 42.8169 997.045 43.5215 996.352C44.2363 995.658 44.9511 994.965 45.6875 994.25C50.4977 989.56 55.1096 984.856 59.3704 979.655C61.1184 977.88 62.7245 976.98 65 976C65 975.34 65 974.68 65 974C66.3281 972.695 66.3281 972.695 68.25 971.125C72.5527 967.478 76.502 963.563 80.4346 959.528C83.7955 956.109 87.3172 952.943 90.9429 949.808C94.3205 946.84 97.5558 943.724 100.812 940.625C106.211 935.522 111.682 930.67 117.492 926.039C120.076 923.938 122.54 921.744 125 919.5C130.175 914.796 135.55 910.381 141 906C142.145 905.074 143.289 904.148 144.434 903.223C151.757 897.316 159.172 891.545 166.665 885.856C171.32 882.313 175.895 878.686 180.438 875C188.036 868.857 195.935 863.16 203.896 857.499C205.797 856.144 207.693 854.782 209.586 853.414C219.268 846.431 229.122 839.701 239 833C240.589 831.919 240.589 831.919 242.211 830.816C277.643 806.947 315.172 785.684 354.004 767.863C357.075 766.446 360.116 764.971 363.152 763.48C376.237 757.078 389.486 751.428 403.062 746.152C405.813 745.073 408.551 743.967 411.285 742.844C422.263 738.343 433.35 734.417 444.639 730.769C446.749 730.082 448.852 729.379 450.953 728.664C466.54 723.367 482.353 718.86 498.215 714.468C503.323 713.049 508.398 711.588 513.438 709.938C522.742 707.032 532.312 705.075 541.816 702.942C545.714 702.066 549.61 701.178 553.505 700.289C557.073 699.475 560.641 698.665 564.21 697.855C565.968 697.456 567.725 697.056 569.483 696.655C582.653 693.652 595.773 691.253 609.164 689.465C611.939 689.154 611.939 689.154 614 688C616.957 687.543 619.908 687.133 622.875 686.75C629.876 685.833 636.869 684.88 643.852 683.832C693.928 676.385 744.407 673.461 795 674C791.772 654.306 788.389 634.641 784.972 614.979C782.229 599.185 779.528 583.385 776.94 567.564C775.639 559.645 775.639 559.645 774.184 551.754C774.047 551.046 773.91 550.338 773.768 549.608C773.385 547.649 772.993 545.691 772.601 543.734C771.223 535.169 770.212 525.595 775 518C781.833 509.874 790.119 507.487 799.812 511.875Z" fill="#1C4470"/>
</g>
<defs>
<clipPath id="clip0_1_7">
<rect width="1771" height="1772" fill="white"/>
</clipPath>
</defs>
</svg>
